<mxfile host="app.diagrams.net" modified="2022-02-02T11:15:14.867Z" agent="5.0 (Macintosh; Intel Mac OS X 10_15_7) AppleWebKit/605.1.15 (KHTML, like Gecko) Version/15.1 Safari/605.1.15" etag="mk0GQJEotGA5z72sdZrM" version="16.5.2" type="github">
  <diagram id="c9HjVlHmndSlHqspS212" name="Page-1">
    <mxGraphModel dx="1440" dy="822" grid="1" gridSize="10" guides="1" tooltips="1" connect="1" arrows="1" fold="1" page="1" pageScale="1" pageWidth="827" pageHeight="1169" math="0" shadow="0">
      <root>
        <mxCell id="0" />
        <mxCell id="1" parent="0" />
        <mxCell id="RDyDFwaOA3mNkReE9emX-24" value="" style="shape=rect;dashed=0;shadow=0;html=1;whiteSpace=wrap;fillColor=none;" parent="1" vertex="1">
          <mxGeometry x="20" y="120" width="220" height="280" as="geometry" />
        </mxCell>
        <mxCell id="RDyDFwaOA3mNkReE9emX-67" style="edgeStyle=orthogonalEdgeStyle;rounded=0;orthogonalLoop=1;jettySize=auto;html=1;startArrow=classic;startFill=1;" parent="1" source="RDyDFwaOA3mNkReE9emX-28" target="RDyDFwaOA3mNkReE9emX-29" edge="1">
          <mxGeometry relative="1" as="geometry" />
        </mxCell>
        <mxCell id="RDyDFwaOA3mNkReE9emX-28" value="" style="shape=rect;dashed=0;shadow=0;html=1;whiteSpace=wrap;fillColor=none;" parent="1" vertex="1">
          <mxGeometry x="303" y="120" width="220" height="280" as="geometry" />
        </mxCell>
        <mxCell id="RDyDFwaOA3mNkReE9emX-29" value="" style="shape=rect;dashed=0;shadow=0;html=1;whiteSpace=wrap;fillColor=none;" parent="1" vertex="1">
          <mxGeometry x="580" y="120" width="220" height="280" as="geometry" />
        </mxCell>
        <mxCell id="RDyDFwaOA3mNkReE9emX-37" value="Tier-1 Front-end or Client" style="text;html=1;align=center;verticalAlign=middle;resizable=0;points=[];autosize=1;strokeColor=none;" parent="1" vertex="1">
          <mxGeometry x="30" y="90" width="150" height="20" as="geometry" />
        </mxCell>
        <mxCell id="RDyDFwaOA3mNkReE9emX-63" style="rounded=0;orthogonalLoop=1;jettySize=auto;html=1;startArrow=classic;startFill=1;entryX=0;entryY=0.5;entryDx=0;entryDy=0;exitX=1;exitY=0.5;exitDx=0;exitDy=0;" parent="1" source="RDyDFwaOA3mNkReE9emX-24" target="RDyDFwaOA3mNkReE9emX-28" edge="1">
          <mxGeometry relative="1" as="geometry">
            <mxPoint x="240" y="300.9" as="sourcePoint" />
            <mxPoint x="300" y="301" as="targetPoint" />
          </mxGeometry>
        </mxCell>
        <mxCell id="RDyDFwaOA3mNkReE9emX-56" value="Tier-3 Database" style="text;html=1;align=center;verticalAlign=middle;resizable=0;points=[];autosize=1;strokeColor=none;" parent="1" vertex="1">
          <mxGeometry x="660" y="90" width="100" height="20" as="geometry" />
        </mxCell>
        <mxCell id="RDyDFwaOA3mNkReE9emX-57" value="Tier-2 Back-end or Server" style="text;html=1;align=center;verticalAlign=middle;resizable=0;points=[];autosize=1;strokeColor=none;" parent="1" vertex="1">
          <mxGeometry x="339" y="90" width="150" height="20" as="geometry" />
        </mxCell>
        <mxCell id="RDyDFwaOA3mNkReE9emX-65" value="MySQL" style="text;html=1;align=center;verticalAlign=middle;resizable=0;points=[];autosize=1;strokeColor=none;" parent="1" vertex="1">
          <mxGeometry x="660" y="320" width="60" height="20" as="geometry" />
        </mxCell>
        <mxCell id="RDyDFwaOA3mNkReE9emX-72" value="&lt;h2 style=&quot;box-sizing: border-box ; margin: 0em 0px 0.5rem ; padding: 0px ; color: rgb(34 , 34 , 34) ; font-family: &amp;#34;helvetica neue&amp;#34; , &amp;#34;helvetica&amp;#34; , &amp;#34;roboto&amp;#34; , &amp;#34;arial&amp;#34; , sans-serif ; font-weight: normal ; line-height: 1.4 ; font-size: 1.55em ; border-bottom: 1px solid rgb(221 , 221 , 221) ; overflow: hidden ; background-color: rgb(255 , 255 , 255)&quot;&gt;&lt;span class=&quot;mw-headline&quot; id=&quot;Three-tier_Client_Server_Architecture_.28See_Figure_2..29_.5B5.5D&quot; style=&quot;box-sizing: border-box ; display: inline&quot;&gt;Three-tier Client Server Architecture&lt;/span&gt;&lt;/h2&gt;" style="text;html=1;align=center;verticalAlign=middle;resizable=0;points=[];autosize=1;strokeColor=none;" parent="1" vertex="1">
          <mxGeometry x="270" y="40" width="310" height="40" as="geometry" />
        </mxCell>
        <mxCell id="tVi5pZDxH6foxFKaeH3b-1" value="&lt;meta charset=&quot;utf-8&quot;&gt;&lt;a class=&quot;CIDcadfe2a5-b573-478c-945b-ad9db5a17599&quot; style=&quot;font-style: normal; font-weight: 400; letter-spacing: normal; text-indent: 0px; text-transform: none; word-spacing: 0px; text-decoration: none; color: rgb(0, 0, 0); font-family: times; font-size: medium;&quot;&gt;&amp;nbsp;&lt;/a&gt;&lt;img src=&quot;data:image/jpg;base64, /9j/4AAQSkZJRgABAQEAYABgAAD/2wBDAAUDBAQEAwUEBAQFBQUGBwwIBwcHBw8LCwkMEQ8SEhEPERETFhwXExQaFRERGCEYGh0dHx8fExciJCIeJBweHx7/2wBDAQUFBQcGBw4ICA4eFBEUHh4eHh4eHh4eHh4eHh4eHh4eHh4eHh4eHh4eHh4eHh4eHh4eHh4eHh4eHh4eHh4eHh7/wAARCAB8AHEDASIAAhEBAxEB/8QAHwAAAQUBAQEBAQEAAAAAAAAAAAECAwQFBgcICQoL/8QAtRAAAgEDAwIEAwUFBAQAAAF9AQIDAAQRBRIhMUEGE1FhByJxFDKBkaEII0KxwRVS0fAkM2JyggkKFhcYGRolJicoKSo0NTY3ODk6Q0RFRkdISUpTVFVWV1hZWmNkZWZnaGlqc3R1dnd4eXqDhIWGh4iJipKTlJWWl5iZmqKjpKWmp6ipqrKztLW2t7i5usLDxMXGx8jJytLT1NXW19jZ2uHi4+Tl5ufo6erx8vP09fb3+Pn6/8QAHwEAAwEBAQEBAQEBAQAAAAAAAAECAwQFBgcICQoL/8QAtREAAgECBAQDBAcFBAQAAQJ3AAECAxEEBSExBhJBUQdhcRMiMoEIFEKRobHBCSMzUvAVYnLRChYkNOEl8RcYGRomJygpKjU2Nzg5OkNERUZHSElKU1RVVldYWVpjZGVmZ2hpanN0dXZ3eHl6goOEhYaHiImKkpOUlZaXmJmaoqOkpaanqKmqsrO0tba3uLm6wsPExcbHyMnK0tPU1dbX2Nna4uPk5ebn6Onq8vP09fb3+Pn6/9oADAMBAAIRAxEAPwD7LooooAKKKrardrY6dcXbDIiQtj1NOMXJpImc1CLlLZC3l9Z2YBurqGHPTe4GaLS+s7sZtbqGbHXY4OK4bw5oj+I3m1TVJ5SjOVAU4LH+gFXr/wAFGH/SNHvZYpl5VXb+TDpXoywuHhL2cqlpemh4dPMcdVh7enRvB7a+9budnRXG6J4nubS7/s3xAhikBwJmGP8Avr29xWx4k8RWmjwAcTXDjKRqe3qT2Fc88HVjNQte+1tmdlLNcNOi6zlZLdPdPtY2JHSNC8jqijqWOAKpx6xpUkvlJqNqzk4AEo5rj7XStc8TOLvUrhre1PKLjqP9lf6mtG68DaebRlt551nA+VmIIJ9xW7w2HpvlqVNfJaI5VmGNrr2mHo+7/edm/RHW0Vynw+1K4miuNLu2LS2p+Uk5O3OCPwP866uuSvRdGo4M9LBYqOLoxqx0v+AUUUVidQUUUUAFFFFABWJ463f8Ivd7fRc/TcK26zvEsP2jQb2HIBaJsZ9RzW2Hly1Yt90cuOg54apFdYv8in4Cx/wi9rj1fP8A30a3a4jwTr2n2GhNBfXIiZJW2rgkkHB6D3zV+48caSgIijuZW7YQAH8zXXiMJWnXnyxb1Z5mAzTCUsHSU6iTUVpfXTyGfEd9NXTkS4QNeH/UlfvKO5PtXLeGxaW+uw/21C4UqDH5nQE/dJB6ioo9WjuNcOp6pC11zkRBsAeg+gq74n1+x1q2UHT5IZ4/uSbweO4PHSvWo0KlKmqNm093fa/Y+ZxWMoYqtLF8yTi1aLXxJd/N9D0wYwMdKK4Lwz4wjs7BbXUVml8viORACdvocmugt/FuhzD/AI+jGfSRCP16V4lXAV6cmuVtH12GznB14KXOk30bsY3hfjx7qYT7u2T/ANCWu2riPh2Dc6xqeoH+Lgf8CYn+grt6vMdK3L2S/IzyHXC8/SUpP8QooorgPZCiiigAoNFc98QL2Wz0ArCxVp3EZYdQuCT/ACxWlGk6tRQXU58ViI4ajKrLZK5T17xcI5zZaPF9pnzt8zGVB9AO9UIvD3iHWGE2rXzQRn+Bjk/98jgVueCdHtrHS4brYr3M6BmcjoD2FdBXdPEww7cKEdur3PHpZfVx0VVxk3Z6qK0S9e55po+k2cfiyXSdSQyIMiM7iuT1B49RT9SsrPU/Esek6RbRwwxHbJIg64+8c+3QVo/Ei1a3urTVrd/Lkz5ZIODkcg/z/Sr/AMO9OW30s6g2GmuSefRQen513yxLVJYnm1ta3S/c8engFLEvAcisnzN9eXSyvubP2bStNs18yO2hhjULucAfqajsrvQ75zHayWUz/wB1QM/lXB+O76a716aBmPk252InbOOTWFG7xyLJGxR1OVYHBBqKWVupTU5Td3qa4niKNCu6VOkuWLt56djsvH+jLbSR6vaQoEBAmQL8uexx+lR61BoMnhRdVt7NIZ5CEUIxG1+/Htg11WkyLrPhuFrpQwuIdsg9T0J/SvOk0+ZtcXQmnzGLnb149z9cU8JOU1yTlZ0396JzOlCjL2tKCcay0ulpJ7Neq/E19I8K6hNpUGoWd+be4kG4Icrx25H+FWYfEGu6HMtvrlq00WcCTv8Agw4NdvFGsUSRxjCIAqj0Apl3bQXdu1vcxLJGwwVYVxPH+0k/bRTX4r5nrxyT2EE8LUcJpeqb80R6bfWuoWq3NpKJI2/MH0I7GrNcHoSvofjaTSo5C9vLxgn1GVP1Fd5XNiqCozXK7pq69Duy3GSxVJ86tKLafqgooormPQCs3xJpi6tpMlpkK/3o2PZh0/wrSoqoTcJKUd0Z1qUa1N05rR6HCeHfEEuiv/ZGtRPGsZwj4yUHv6j3rtrW5t7qIS20ySof4lOar6rpdjqkXl3kCvj7rDhl+hrk7/wneaYJLzSdTaNUUsQxKkAe44Neg/q+Kd78kn9zPEj9ey6PKl7Smtukkv1IvFjSa54rh0mB8JF8pPUA9WP4cD8KseBL6Sw1C40G8+Vg5Meezdx+PWsDQLzVba8l1a2smvGbKyOyFuTyenek8QatJe6hDffY2sruPGWBPzEdDyOteo8M5R+r2922/Z9z5yOPjCp9eu+dy2s7OO1r7aHReNfDNzdXjajp6eYzgebHnnI4yKwNN8L6xeXAjktXto8/NJLwAP610Vt47s/IQXFnOJdo3lMEE98c1KfHem/8+l0fwX/GsKdTH0oezUL26nbXoZNiK3tnVtfVr+kamq3Vv4d8PAR4/doI4VP8Tf55Nefvp99BpcPiAs257jI9fUN+JzUnibXP7Z1COQxutrFjbEW5Pr+JrQvta1XVdNbT7bRQlsVC/KjNtA6YPA7Vrh6FXDxTa1k/ev27HPjsZh8bUlFN8sFaCSer7+mlju9Mu0vdOgvFxtkQN9D3rJ17xTp+mo0cTrc3OOEQ5APua47w/Y6vrNu1nb3xitYT8ys5AGfYde9dbovhDTrBlluM3cw5BcYUH2H+NcFTDYfDzftJX8l+rPZoY/H46jH2EOW61k/xsjO8GaZeXepv4g1IEM+TGGGCxPfHYAdK7SgdKK4cRXdefM9O3kj2MDg44Ol7OLu92+77hRRRWB2BRRRQAVk+MZTD4avWHBMe38zitasfxnE03hm9VRkhN35EGtsNb20L90cmPv8AVanLvyv8ir8O4RH4bR+8sjsfzx/St+SKKRSskaOpGCGGc1hfD6ZJfDUKKctE7Kw9DnP8jXQEhQSSAB1Jq8W39Yn6syytR+pUrbcq/LU851fTz4Z1tLoWyXOnynhXUMAO689x2NP8R39hqDQaboNjAXmwWdIQG5/hHp71d8X6/HqAOjaXELppGCs4XIz6L/jWXaRah4R1OK6urVJYpF2krzjPUA9j/Ovapc0oRnUXv20V9/VHyWJ5KdSdGg/3La5mlflvukztPDeiwaTp6wlUedvmlfHU+3tWtgYxjiqumahaalbC4tJRIh6jup9CO1WjwM14FWU5Tbnufa4WFGFKKo25baWOH8D5tvFWp2f8JDHH0fj9DXcVw3g0/avGWo3acx4c5+rAD+Rrua68y/jedl+R5uQ/7q7bc0relwooorgPaCiiigAooqO5k8m3kmxnYhbHrgU0ruwm0ldklNkRZI2jddysCCPUVy9r4m1O6gWe38PzyxN0ZWyD+lS2nioC+js9T06ewaQ4Rn6V1PBVlfTbzR5sc2wk7e9o+6aX3tWMttF8QaFeyyaGwmt5D9wkdOwIPp6iiTTfFutHy9QmFrb/AMS5AB/Bev4mu5orT+0J7uK5u9tTD+w6PwqclD+W+hlaBoNjo8f7lfMmI+aV/vH6egrQu7eC6t2guIlliYYZWHFS0VyTqznLnk9T1KWHpUqfsoRSj2OKvfCmoafcm70C8Zf+mZbB+mehH1qCeTxvdxGze3ZAw2s4VVyP97P8q7yiutZhPTnipNdWtTy5ZHSu/ZTlBPdJ6GN4T0RdFsSjsHuJSGlYdPYD6Vs0VV1LULbT0ie5ZlEsgjXAz8x6VyzlOvNyerZ6VOnRwlFRjpGJaooorI6AooooAKr6l/yDrn/rk38qsVX1L/kHXP8A1yb+VVD4kZ1fgl6GN4HuLePw1aq88SsM5BcA9azviDd2l5Ba2FrIk94ZgVEZyVGMdvXim+F/Delaj4ehuLiFjNIDlwxGOaTwbDbabrVxpV7bxi9QloZiOXX0H4c/nXr2pQrTqxbcotu39dD5fnxFTCUcNNKMJpLmu30WlraN9Df1vVP7H0uFmj865fbHHGP4mxVBbfxe8YuTe2ccmMi38vj6E1B47V11LR5/NMMaysplxnYxxg/oa0xpurkZGvuR/wBcFrCKhClGWl3fdX67bHdUlUrYmpT960LJcrS3V7vVN/loTeHdUOp20nmxeTdQOY54/wC61UpU8T3tzKY5rfToEcqgK72cDv8ASp9J0ttLmvb6S8a6kmG5/kC8j6VleHbOXX7d9U1C/ustIypFDKUVAPpSUaalOcbcunS+/ZP9RynWlCnRqX53fZpXS6tr5aLqW9H1LVIdebRtWMUrtH5kUsYxkfSpvEGrXcV9DpOlRpJfTDcWf7sa+prNit5bXx7aQyXT3AFu2xpPvAYPBPepgy2vxEdrg7Rc2wWFj0J44/Q1pKnDn5kk/dvbo36fiYwr1lRdNya/ect3ulvv+CZI9v4ssws6Xtvf8jfAU28exql48TVD9lkaaFbdriMRRhfmR8dSe4zmuxkdY0LyMqqOpJwBXN+Pv+PLT/8Ar9j/AJGs8LXcq0bxX3G2Y4ONPCVEpy6aNt/8H9DY0aHUIbVl1K5juJi5IZFwAuBx/OrtFFcEpczue1TgqcVFPbvqFFFFSWFMmjWaF4mztdSpx6Gn0UJiaurMq6XYw6bYx2dvu8tM43HJqrrOiW+pXNvdGWS3uIDlJI8Z+hzWpRWkas4z509TGeGpTpKlKPurp6bFbULG31Cza1u0EkbDnsc+o9Kxk8O3sSeRB4gvUt+gTAJA9M10VFVCvUgrRehFbBUa0uaa17ptP8CnpOnwabZ/ZoWkcElmaRtxYnqTWWPDj21xJJpeqXFjHK25olUMufbPSugoojiKkW3ffcJ4KhOMYuOkdrXVvmtTJstBtbbUI9QM1xNdKpVpJHzvz61PrWk2erQLHdKQynKSIcMh9jV+ik69RyUr6oawdBU3T5VyvddznR4WEpVL7Vb67gU8RO2Afr61o63pNvqmnCzkZoghDRsnVSOlaNFU8TVclK+xEMBh4wlBR0lvu7/PcoaNYTWETrNfz3jMQd0v8OB0FX6KKynNzfMzppU40oqEdkFFFFSWf//Z&quot; class=&quot;CIDcadfe2a5-b573-478c-945b-ad9db5a17599&quot; style=&quot;font-style: normal; font-weight: 400; letter-spacing: normal; text-indent: 0px; text-transform: none; word-spacing: 0px; text-decoration: none; color: rgb(0, 0, 0); font-family: times; font-size: medium;&quot;&gt;" style="text;whiteSpace=wrap;html=1;" parent="1" vertex="1">
          <mxGeometry x="65" y="200" width="30" height="30" as="geometry" />
        </mxCell>
        <mxCell id="tVi5pZDxH6foxFKaeH3b-2" value="JavaScript Framework" style="text;html=1;align=center;verticalAlign=middle;resizable=0;points=[];autosize=1;strokeColor=none;" parent="1" vertex="1">
          <mxGeometry x="65" y="330.9" width="130" height="20" as="geometry" />
        </mxCell>
        <mxCell id="tVi5pZDxH6foxFKaeH3b-3" value="&lt;meta charset=&quot;utf-8&quot;&gt;&lt;a class=&quot;CID3e995eed-f395-41c4-94e8-15d6ceb42547&quot; style=&quot;font-style: normal; font-weight: 400; letter-spacing: normal; text-indent: 0px; text-transform: none; word-spacing: 0px; text-decoration: none; color: rgb(0, 0, 0); font-family: times; font-size: medium;&quot;&gt;&amp;nbsp;&lt;/a&gt;&lt;img src=&quot;data:image/png;base64, iVBORw0KGgoAAAANSUhEUgAAAIQAAABCCAYAAACW9X4OAAAAAXNSR0IArs4c6QAAAARnQU1BAACxjwv8YQUAAAAJcEhZcwAADsMAAA7DAcdvqGQAABUsSURBVHhe7ZwJeBbVucfPe87MtySEkLDIEhMSQjYgsorbLdpFpVVrabHVa+3VLrc+vfXaWqu3reUBba11ub29PtqiV612AawWtQtSFW1RwLKELQSICUGQIGvI9n0zc865/zPfhCV7gD5PxPnxnExyZs7MWf7nfd9zvvlgISEhISEhISEhIacKBcd/ColfFsx0Pfq051BVwkt7bMTtG5qDUyH9lH+aIBofLfyW4OxOUmyYk9Su8vSfiWI3Dbqt8mBwSUg/hAfH00rzL8Z+U5Ceawk2TENytk224OIKqZzbgktC+imnXRCN8wuuZUzdZVs8w/WYNnkKP+MRgsGgaZvmlEX8C0P6JadNEHo2Ew33F8y0Nb8zZvOhSVdDDdKBFrR5ivkLZI2yvFF+gZB+yWkTxJ78okuTjeIhz2G5Cn9z0vuYJo+IEcdTuGAMLoRiUfu0W6WQ08dpGZz3f1AwVhDdTy4VtTYylXD0TojCtSwe44ghYB3cFk+1KEY7E3bTgaBYSD/klAVROycv5jbaD1maj2OKc93M653Daq1zhHTrft3S9D4dbqnnXus+sloPql1Z36o7HBQN6YecsiBod/wO7fIrki2aJVu16zSzquRha1jyEB+ZaOBxt5ENUAmKa5eSyqHNQbGQfsopCaL2huJLmEff0Q4CBY8zleSrtKQkd+kC5iB6UNwiIsuy/O2O91pJ/sUvGNJvOWlBrL28cKh2xc9I8gGY/cxN6Hrt6VpYi/O1Y8QBPTiIHyAWJ8m0p9jyMffV7AyKh/RTTloQA2KxObAI4yQG3kuSSjq8UktuRxUf7SYZkxCJEYr2iMkkO8A98WhQNKQfc1KCqLysfJbw+DXc48JYAM/R9STZKsQIs1pbGCwDhIAkkRSsBUTz4sgHq9YExUP6MX0WxLoZ5wxiLv8auXyok3ILLlzEMqQLLE9EpHEXJrm4OMlhPeBKZOSeVOmQ/k6fBaF227PkEfoXN5FyCRDF+8xjNbAYMxJwFRpCUMg3ouBwF9zV94x+fENtUDykn9MnQbydO7VAuuxLvMlOSyZSroE5YoHn8OtN3GACSeMmJIJJS3IjlmcO7o08FRQP+QDQp4+/V+dNuzPC6V5Ha2YP0IzS5HYS+iVhs29rSIsEFCY0swRWHSRf083s+2VvbFwZFO8Ta3PLyixbZU4YlL6a1qwxDqhLFjEmigtLpkGTUSvIa49WVvMgFt1eULPmiL952gPrxo4d5Sk+NpPk2qLq6iNBdq/ZO7RswN6BagLTukRrSoM9PexptUkNHlg5tYv2rC+ckIP1e76QVDe+prJXK7JVI0sGW3FWRMQbXqiurJqLeWnya/PyYo3RjCIp3WxN1GN7DRi6xl4LYnnetIlRzp63iOd7EITZW1Bx7xbLUt+DIIabj7khDsa5H2TuUgk6RCQWuELf31UHdIXpGK28ZyOMznOUPm/iji2rglOdUlFens6a3XfQ+UNQDeiiI6bKmjRsF5sf9eiBsp1Ve1JnOmfd6JJHsizr5gZP3nFwx7CHLmFveMGpblkzenQeZ/GvY6p9hYhlc61bTd+keofFoMztTPD7WKO9YOLeE18Y2jCm7Dal1b2YVvdMrKmcF2R3S0Vh8ZUQ3ONM0XI7TteOr6w0bWQVueX5JJzHBaePStQBWT2JAqqhil65jLdyzotHNF0fIyvfRc8KtNb11HrVwqbJJmtw8pBgzn7Bknst1rpHMHnIzkEMMUEr9WpfxeDjuTNR/XG+/SJ287IZM7qa+MfQOoIW1aPVdyvOf6CJ33ViYg9wTZsjxL/tCPbsmjFlhUHJDqzLH3uuxdklLVoxiOiGSMG72cGpblmbVzrT4vFXI5zdhgrVkdQPM83N7/9BWs/D7V7iRBlRxR5nac4T/8gtGREU9YEV8aeV/2svkRhF0ubVAmOjjydh7ma7SjdJ4g9LTt/r2CfHEq65i2v2SK8evDJ3+hRU8Q14gnRTZfNkydgDmunrbcaG+zYKoEH+Mc45S5K3kFzv65Pq1vfps4tlZWUDslvVM3jMGGjPzK4iGaOJU7ZsqQsu6YBvIZrc9/D46ha38aILdu0yM6IDqwsKMiPK/lFUiG+0KPm0JPeWqTU1DcHpo6wbXXo75/qn+PU5zuhizMCby2srn02d7ZzVBSWfsTR7GvVGdMV+TNJ+qnznxkOpsynQO7SpoOgCpfi8NIt/tFnKX2mVuHVSXerznY1jSr+DAb4Pl82DhYD175k1Y4qvEpo/AcH9XcT5549ZiCJYCPEMxuhsS/CZ46srK/0CPdCjhViWNyMGY3JrlPN0M/A2hl0qvRyKGIvCg9rEYIBYGVwKSyjV6El6vK9iMGQ1excpYpdjEH6Ne99lc9IiSV8LTneN0SIujQsRTWV0xAx+k6fuTWq9JMLFDUJFpgenjrIur3i0xWkWBnZV1FI/UKSr0Km3birr+sWezWNKx0EMD0PAEnX/2jm1Vf/dXgwG3FNPqNn2psfoJkex1y2ia0hExwen/1kQrDoe3Tt6FAQ6pYwR/3wSHW4GHJbBpLUY90LBeMw8qy2hgUYsDVLTvKEqfXnqDr1nGYNrEOJS1N6Bx//bpB1VS9GY7VD/dZsQpAWXdQORE48bk9slF+zavtvT7MU0NAB2drr/zOMgQZNtovNcRX8s2batCoP8R7R8kkryKcElHZCKzYsQnYX46ceTaqr+EGR3yZQdW+pw3zvgkL4RSfAtQXa/oEdBSE/divjTbpv96Ki34a5y0KA882qcmZhtCf6qXmq1Es5rc37dG8Z09ons/PpSKGs2Mb7YzUzfYPIwO59AnDrMGaA/71/UHaik7Xk9tglOt/6IlDAUlD+8uD4eZMPsT8nkxGc7Wu1GMPa6ycPy+SnM+gYl5Tf9i9qxLnfchbjjDCPcrGGZ/xtk98j42sq3y2u2Pln2XlW/ej+k2857Pe8jpYrxWR4uwxGWwRzZdhiCIRYXA4y1QGf4Pw1ENFxzHsPUezfI6hNYo1yEm+Rg5bQEwWiLyUvn8ncQXjOm/U3+Rd2AmlDEjXRrIQy4Loo2wLXoRPIwQrwAIVrzIcgvICp/DT7ct3Dj6yrrcfgT3NFlK+BOTN4JcDULbiWLKb0wd+XKTmOXDxLdCgIiuBkBbJrEuoKTxRxNWxRx7pEY7xo3ga5NWQfCPwhGsRqm+E/OrVmxKXWH3rMqr2w4DjdgpfAW4/bfU7mMpfYA6FeY1SUVeUWXB9ldoCkZkz1aCK11yRBhmfd5Nrct/RYhRiBPfwHtaYGVOOFjelerX0JAMQSCnYhSTYsROsViS4OMU8KfXlr5bmxZXl6su2SuIcUivr/uGvJcHZ2Dse7sHm0J7fYnUpedtyTn0mzFxNW4Ds8kZqyEp/lO/B2Pkp2NwMi3GiaZZmD93KhJvSiEuyJ1h75hczXBJnYelnlLz6neuCvI9vGU+4RklKm5uDbIOmnW5ZedayMm2i/lfm3cX0BJK8/C4csQSwV5YkkqN8W02m2rYaXW4tzsl8vPSg+y/U0h4jTQWEpb6G2p3JMHE8uMLDpUf3Z9QcnCbJ72m+7ShoKyRXCn34ZYB2IIUgb7OOBusWhhI2yL3feZgtKu7yfSnq0sKL0U1yIo6AJt639TZA31fOHYxjrsgRgaIIxzk6g2xIIaHEuc2xlai7SpNWs6LON6YvWIKWmYEl9FhWpcYi8F2UdJytYdQus/oSYXVhSUdB6Vp4xVlLs6f/2owhyzWjg+/aNw3JiKMUWXR0ndH+O8RCnv56o2VpEqbIp7V6JjB+OXpe1XCBgkLQT/OTord3hj1lFRRtKjMbMHoJVi73pe3/dbOsFMdU2UDXEUoZsLu01Mj4VlHoFSXezTYNlFZkOMcvHH2E7vgQSfWYQJPsgU6FIQSllX416xVNxg3AGvR0Vbojwy0kW126yDSbgOZpXtgTAWB8X7BEWO5CFwu9Jj7JVp71StDbKPYvYV0KgHUPF8PPCzQXZ7sHigs4USj+qo9Txm7rPHJ0vCemnrz1jGTMaa+EHGvV9OZalNs02sLAJHcwsUtS0SYfP9u7XDFnIJrESdIvqcmUkmb1vrgYP4JYl4ig1340P8C08BaJowzbVW+jc6o+USLbxPdpfsiP44rPc8COMQinY2lhaC/z0Wqa8r7n6is3uYxLn7sYMx9hLagmHohOfzrjgfDmohIu2ztTZVhDtgciknKsXyqkyZPD9ySCWYeia1fOUjO/52mblp6i69w3Tu5oKyu3H8PoK51chYhZu2X/PjnmpgFC7DUfp1R+rrph239RxsTNWhLKqnV2HWGlPZvm1Gx7Xo8VdjdsZrRdVvH/18YkNhyScQUCxVTB5E2YVoVYcZh6Uvh/Y/DvnbuPbGCTs2+zEDLNYLcEFXOaS/OKl6y6/9i0+Sto0pM8iTe7sxVVh8pVD+xtTyLjamcjWnmZPe2dKr91k7tRAWtz4Ky3CWB3tiNqox82FCrWqL7DITTBqrYL59Y44mFnE0b/K0+G1fxWDYmJs7SCr5Fc1UMyqfQJR0PmQyuV2aCjNUCDHU4JoLEG98PCh+DOgSP3dEbP1VT0S/SEzccHySwr3xoBx2e3ndlsXHi8GgJf0nRO9xTbWox7TjnnsscVYOoRzC4I+UTF0VFAX0KpacCQSk1wUZp0yXZrszzJzsKP6TptNnY6ZOFjwSMYGkA9sqiTbBVZ5j3IfJa4sbUnGECTZpw4G6IU8HxfuEtOLXcE5DoKTFSeF9ipE7k5HzyfZJy1YEPfy7aVxEELBcuqmsw0aV6RRHSLlncnXFvvLaTXuPT5Orq/dd0sneyIb8onKUvBC2si4p2ZWIyVGHjs9PRNjMpKQbHS3rEMjNWJ9fPMGUb2bJBeYzFMQfF1cUFV3k37QXGKu256xjAWp/oYMg/pD36dFa22ebgTZWAJayRWrxJoLLyxFYHrUMbVbCZTwhScy7hj3bIcrtCWPWYYJvhplsRVz22HlYYk6sqXm/s2T2+7XlrEwo+RoqbV77x8w9AdyO0ZHmzB73IY4HbfgyWjKAFD1l3FBnzzZpelXVgfR0Vik1PZ0m+HjEEh8z5S/EOU7qESKKkkcPrMs7xwRnPaKbktfsTc/atj6v+LRZltNBB0FoihVhsIebZaURhSS2nZiVyxE4mr/bxHCcKP5v5o6XXw6K94mK/JJPYloX4qkbJ++oeiPI7pJJ27fvVlovzuLWIOL6YiigT9a1PRUF5cNwmAmL6CrPezKV2zXGP0uh/9yipCcYXb6luHikyU9mDfiZUvplBKzTYU2eriw58VPM9qDdV1ia380VRYhRbZDdL+jQoQ0UO9sjKzsVP3ClyX7OIza7LXZIiQLLTLhs5L3iRK3/Cor2HaIb8SONad7rN7Jtiy8/rORWrtn16wpKxwTZJ4Xmzr9iQHIRxC1cvGt7t+9HtBFx7K0osxBu4zLHY1NNnvmIHwN8U1KrZTFBVzoOLdmYX/xZE9i9lZOT/U5BQeamvLLh6/LGTlyXVzoX5RfBnMa09m4pr6s6qX2b3mBMJvrX4oplb8idkLUhf/xZph7mY/dKpLdyxo4yLwKtHzUh5+0x487eiNRBEAd4Zm4LxdL9wVd8p1YsBguRbfYjjBhMkG12LVu1egVZX75664uNQdE+YTaI0omfj0rvaWpUvV6ujqvesg6d+cow2x5raz3Dz9xrtKVjcTigA+aFzl6wvLg4w9JsVoxTFG2c3/amUU+YPQpMlr+kw2JGGb96ZWHhQJNvtrhbyfkCfN8vMO2Hpwnr90zwpXE747EmHf0FLMsCIcTyNIvfqUkt10Jfd07d9t/5N02BBQ5ZUeLQuur9f5mg/TLG9doRKDHIZW7E5lHOFc6NUEzfry1vgWbebyXXv7Ut+p1jsYVptljIPLFIR7xFESl/r7R6zhfEfcW3Z8wbc+s48zssQm4zjyN4tMzS9hmP+LUmkDTxAh5hYopmV8mHE1b81jU1U07YUewTXI9u0fofWCffc+GBrU1Bbq9AvZ5735MvwGgN2ZmTE7cGey6EtbhFy7/LjJZevdk00NH5UtE7zUo9KhIR/4O03hLBEq/BQx9g1sRZ3BeEwcQTWar1W47kNzQp9SAswbsINschYJ0Et2T2BJ5JuvqmiEdfmlRd1X6rGzpQWxNavYRB6fXWvxC0O6nUEo+zFUcyM4+KOiqpCfdanmTqr4hvjmB1hkUUg8X39xHM/ksSUUErJ2rGsQmzvAF9eNhX1Jy8ObForOlarfgIrB2m21xcleEcrE+XiR/BND6AFMUEcpiSrwhyH9vNR1kJJva25GaumPvG3F4NQHveyinLxvIxGh/AD7StnXuL+cg6beTezHg0aVXV1u6fjcqtLygYajkxb9yuykNoVMpadoOJ8q0GL4OlsyY8v0+CNGwrPHdgc+JQhj3Q3tdZ/VdPmWKnN6mhrTLpB5mwKo18UKy+uzfIdo8YkXYgNjiDN6nm8ft6V6dthYUYmwEDm91D7sS6uoa2tms2W6zI2Zw5ULCI+Q62f3EvOGpi5pXeMYlL9Sgih/Iot+JKJZ4c6DafBVM8U2t6zyXr5aQQ+1wdGY/bH4oL+uEt2x7sVwFRyKlzdIm2bP+b9RcP/kheVEQ/JqEvSP7JVkr7XNKKD2zh0XhSRIqUti6ACdwHs/PD72x/qCooGnIG4ccQi9iilDA0W9Gi3cYEkxsRQ5RKwTP8+IEsG5G4jbX3ArjNu/Yf4dX+9SFnHL4Qcstzh146+JJxWEmMxvhfzIi/gOjkfGIin3GOeANLTfM6OWMHsRJd8aO6B7f7pUPOOHwLYdlW0lHic5rTfMloEBZuOESyEIxgtaGPuEptQRzxvCI9566tD/qvloWcmdCcsjmRBIlSUl4JViXnYu2TjrVJumCiXpDahZXFPqHZprnb7u3T0izkgwnNYXMiyZJoxk+qvnfguxPmzmRSD+NaVklmRRrShq+cv+bfT8uLHyEfDPhcNtcxYjB/SKmHS+LJn2y5e1WEOzsYC/9Lhw8bR/chbiu9O09x+pS01V9/XvHDMGj8kOIHlYakxXMliXgohg83viAQR2BtyQdKYr36xC/kzMUXxLuT0oZ72hqjpXjNzw350JJyGR7LOKKTgx+p/K75llLIhxg+m80Wu9wDuYdUa6++Lh5yZsNrCrIG7NGHp79nNZ3Ua3AhZxY8mXYk5kpn0Pr1/xP+p+QhjMtkbIrSx77jGPLhhmtNF3raDt1FiA8n0m/W1Mzv8xd0Q0JCQkJCQkJCQkJCOoGx/wdeyu3Dbg3XgQAAAABJRU5ErkJggg==&quot; class=&quot;CID3e995eed-f395-41c4-94e8-15d6ceb42547&quot; style=&quot;font-style: normal; font-weight: 400; letter-spacing: normal; text-indent: 0px; text-transform: none; word-spacing: 0px; text-decoration: none; color: rgb(0, 0, 0); font-family: times; font-size: medium;&quot;&gt;" style="text;whiteSpace=wrap;html=1;" parent="1" vertex="1">
          <mxGeometry x="349" y="159.99999999999997" width="30" height="30" as="geometry" />
        </mxCell>
        <mxCell id="tVi5pZDxH6foxFKaeH3b-5" value="&lt;meta charset=&quot;utf-8&quot;&gt;&lt;a class=&quot;CID77f9b2e1-4bfd-4c5f-8c58-99b1c7a7d1ce&quot; style=&quot;font-style: normal; font-weight: 400; letter-spacing: normal; text-indent: 0px; text-transform: none; word-spacing: 0px; text-decoration: none; color: rgb(0, 0, 0); font-family: times; font-size: medium;&quot;&gt;&amp;nbsp;&lt;/a&gt;&lt;img src=&quot;data:image/jpg;base64, /9j/4AAQSkZJRgABAQEAYABgAAD/2wBDAAUDBAQEAwUEBAQFBQUGBwwIBwcHBw8LCwkMEQ8SEhEPERETFhwXExQaFRERGCEYGh0dHx8fExciJCIeJBweHx7/2wBDAQUFBQcGBw4ICA4eFBEUHh4eHh4eHh4eHh4eHh4eHh4eHh4eHh4eHh4eHh4eHh4eHh4eHh4eHh4eHh4eHh4eHh7/wAARCAA6AIwDASIAAhEBAxEB/8QAHwAAAQUBAQEBAQEAAAAAAAAAAAECAwQFBgcICQoL/8QAtRAAAgEDAwIEAwUFBAQAAAF9AQIDAAQRBRIhMUEGE1FhByJxFDKBkaEII0KxwRVS0fAkM2JyggkKFhcYGRolJicoKSo0NTY3ODk6Q0RFRkdISUpTVFVWV1hZWmNkZWZnaGlqc3R1dnd4eXqDhIWGh4iJipKTlJWWl5iZmqKjpKWmp6ipqrKztLW2t7i5usLDxMXGx8jJytLT1NXW19jZ2uHi4+Tl5ufo6erx8vP09fb3+Pn6/8QAHwEAAwEBAQEBAQEBAQAAAAAAAAECAwQFBgcICQoL/8QAtREAAgECBAQDBAcFBAQAAQJ3AAECAxEEBSExBhJBUQdhcRMiMoEIFEKRobHBCSMzUvAVYnLRChYkNOEl8RcYGRomJygpKjU2Nzg5OkNERUZHSElKU1RVVldYWVpjZGVmZ2hpanN0dXZ3eHl6goOEhYaHiImKkpOUlZaXmJmaoqOkpaanqKmqsrO0tba3uLm6wsPExcbHyMnK0tPU1dbX2Nna4uPk5ebn6Onq8vP09fb3+Pn6/9oADAMBAAIRAxEAPwD7LooooAKKK+NR+0N8SP8Ahba+G/ten/2edfWw2/Y13eUbgR4z67e9FyJzUdz7Kor5w/ar+MPjL4deMtL0vw3PZx29zp/2iQTW4kO/zHXgn2Ar1f4D+JtU8YfCnRPEesvE99eRs0pjQKpIdhwB04FFwU05OJ3FFFFBYUUUUAFFFFABRRRQAUUUUAFFFFABWJ428V6D4M0CbXPEWoR2VlFxublnbsqjqzH0FbdfEv7dHiK8vvibaeHDIwstMs0kWPPymSTktj1wAPwpMipPkjc77VP2vvD8V6Y9N8I6nc26tjzZJkjLD1C84/Gvmrw/qC6t8ZtM1WONokvfEkFwqMclQ90rYP0zX1X+zv8AA3wHJ8MtI13xFodtrWparbrdO90C6Ro/KIq9BhcZPUnPtXy3p9rBY/Ha1srWNYre38UxxRIvRUW7AAH0ApM5p81k5H1f+0n46+G/hXxXp1n4z8BN4jvJbHzYZwsZ8uPew2fMQeoJ/Guu8J/ELwXo/wAD7LxvDpsuheHFjJjtEjDNHlyu0KvGSf5189/t8/8AJSdC/wCwQP8A0dJXp3w103wnqv7ImjW3ji/NjoKxGW6kEvl5CzMQuRzyeMDk9qfU1UnztGLqv7X+gR3DJpvhHU7iIHiSadI9w9cckV6H8FPjv4Z+JmoyaPb2d1pWrJGZVtrghhKg6lGHBx6V4XrPxK/Z10i0l0zw/wDCtdWXYYxc3MCIW9w7lpPzANcR+yKzJ8etD2kjKTKee2w0rkKpLmSvc+kPiH+034N8J+IdQ0FNJ1fUr6wuHt5xGixoHU4IBY8jPeuQh/bC0v7QPO8E34hzyUukLY+h4r5++NKrJ8dfFkbDKtr04I9QZK+l/wBpn4SfD7Q/g7qer6F4ZstMv7Dy3int1KsRuAKt/eBB70ahzzd2nsev/Cv4i+G/iRoLat4euHPlN5dzbyrtlgfGcMPfsRway/il8ZPA/wAO5Psut6i02oldy2NqvmS4PQsOij618vfsf+IpfDJ+IGrp862Xh9rzyz0d4ixQH8Tj8a4r4O+GpPix8ZLfT/EF/cSfbpJbvUJ937yQKCzAHsT09qdx+2dlbdnvF3+2DowlItfBepNH6yXMak/gM12Pwl/aK0j4g+K7bw3a+F9VtLqZWcyM6PEiqMlmIOQK8q/bG+Hng7wR4V8NHwvoVtpzyXMsc0qZMkoCLjcxJJ79az/hHJZ+Gf2VfGfjXTrVIfED3UmlLfLnzFicQYAPsXJpXDnmpWbPXfiX+074N8K6tNpOk2d14gu4GKTPbsqQow6jefvfhWL4T/a28L3+oR2viDQL/SInbH2lHWZE/wB4DBx+FeMfsj+ANE8d/EO6TxDbi70/TLT7Q1sxO2V2bC7vUDBOO/Fdh+2f8MfC3hCy0TxF4X0yDSkurhrS5toBtjY7SysF6A/KwOOvFF2LnqOPN0PsHTr201Kwgv7C4iubW4QSRSxtuV1PQg1Yr58/YV1y71L4X3+lXMjSJpV+Y4CxztR1D7R7Ak/nX0HVHRCXMkwr5E/bk+H+qNrtr4+060kuLFrdbe/aNSxgZfuu2OikHGexFfXdNkRJEaORVdGGCrDIIoYpw51Y+K/gz+01N4L8G2nhnXPD8urQ2K+XaT284RxHnIVg3BxnAI7YryPw9qC6t8ZdM1ZYzEt74kguAhOSoe6VsZ9s1976t8Hfhfqly1zeeCNGMznLPHAIyx9TtxmqGoeC/g38O9ObxJfeG/D2kw2jB1u5rZWdGHI2kgtuyOAOc0rGLpS0u9EfOv7e8in4n6JFn5l0ZWI9jNL/AIVX+JFtqj/sdfD+a2WU2EV07Xm3O0ZZxGT+Oa8/+NnjK4+KnxWn1TS7SdopjHZaZb7cyGNeFyB3ZiWx23Y7V93fDbwjBoPwr0bwhqdvDdR29isNzDKgdGY8upB4IyTS3FFc8pHyF8BviJ8JvB/hGe38VeEG1DXWmdvtTWiXAZD90Dd9zH096yv2V5Un/aJ0qeJdkckly6LjGAVJAr65uPgX8JppzM3gjTFYnOIwyL/3yCBW14Y+GvgHwzfx6hoXhLSbG8jBCXEduPNUHrhjyKdilSldX6HwT8Zf+S8eKv8AsPzf+ja+zv2sv+SC+I/+uaf+hiui1L4U/DnUtVn1W/8ABuj3F9cSmaaeS3Bd5CclifXNdJr+jaXr+kzaTrVhBf2M4AlgmXcj4OeRQkVGm0peZ8Ufsd6KviS/8c+H3cRjUfDz2u/+4XO0N+BIP4V574X1bxL8HvinHez6f5Oq6VK0c9rOCFkQjawz/dYdGH1r7503wn4H+HtlqfiDRPDVjpnk2jyXL2cAV3jQFyvv0rhdS+IH7PXxBsorjxBqXhu5Kr8o1WIRTR+oG8Bh+BpWIdKyWup84ftC/G23+Kmj6Tp8Hh+bTDYzNM7yTh95ZQMDA6cV6J+zx4Vm8bfso+L/AA3blRcXOqTNbbunmrFAy5/FRXnn7S+ufC24fTNB+GOl6dFBau8t7e2kG1ZWIAVA5GWAwTnkc8V9JfsbaBdaF8EbOS7iaKTVLqW/VGGDsYKin8VQEexFC3Jguao7u58m/Bfx5qfwe+Ilxd3+kzSDY1nqNi58uQYOeM/xAjvwQTW3+0b8Zm+K02l6fpukz2Gm2Ts6RysHlmmYYzgdMDIA68mvs/xr8NfAvjKYT+JPDNhfXAG0TlCkuPTeuGx+NVPCPwj+HHhS+W+0PwnYQXaHKTyBppEP+yzkkfhTsV7GduW+hzH7JfgW+8EfC2MatA1vqWqTG8mhYYaNSAEVh2OBz9a9foopnRFcqsFFFFAwqvqVhY6lZyWWo2cF3bSDDxTRh0b6g8VYooA4Xwj8Ivh74U8RTa/ofhy2t7+Q5RySwh9fLB4XPtXdUUUCSS2CiiigYUUUUAU9d06LV9Ev9Jnd0ivbaS3dk6hXUqSPfBr5a1T9j1vtB/svxvtgzwLmy3N+asBX1jRQRKEZbnzp8P8A9lLwvo2ow6h4m1a415omDLaiMRQEj+8OSw9s19ExRxwxJFEixxooVVUYCgdAB2FOooHGCjsFFFFBQUUUUAf/2Q==&quot; class=&quot;CID77f9b2e1-4bfd-4c5f-8c58-99b1c7a7d1ce&quot; style=&quot;font-style: normal; font-weight: 400; letter-spacing: normal; text-indent: 0px; text-transform: none; word-spacing: 0px; text-decoration: none; color: rgb(0, 0, 0); font-family: times; font-size: medium;&quot;&gt;" style="text;whiteSpace=wrap;html=1;" parent="1" vertex="1">
          <mxGeometry x="340" y="290.9" width="170" height="80" as="geometry" />
        </mxCell>
        <mxCell id="tVi5pZDxH6foxFKaeH3b-6" value="Web Server" style="text;html=1;align=center;verticalAlign=middle;resizable=0;points=[];autosize=1;strokeColor=none;" parent="1" vertex="1">
          <mxGeometry x="385" y="216.9" width="80" height="20" as="geometry" />
        </mxCell>
        <mxCell id="tVi5pZDxH6foxFKaeH3b-7" value="Python Web Framework" style="text;html=1;align=center;verticalAlign=middle;resizable=0;points=[];autosize=1;strokeColor=none;" parent="1" vertex="1">
          <mxGeometry x="349" y="360" width="140" height="20" as="geometry" />
        </mxCell>
        <mxCell id="tVi5pZDxH6foxFKaeH3b-9" value="&lt;meta charset=&quot;utf-8&quot;&gt;&lt;a class=&quot;CIDadb790f8-6170-40c4-973f-e10263c3728e&quot; style=&quot;font-style: normal; font-weight: 400; letter-spacing: normal; text-indent: 0px; text-transform: none; word-spacing: 0px; text-decoration: none; color: rgb(0, 0, 0); font-family: times; font-size: medium;&quot;&gt;&amp;nbsp;&lt;/a&gt;&lt;img src=&quot;data:image/jpg;base64, /9j/4AAQSkZJRgABAQEAYABgAAD/2wBDAAUDBAQEAwUEBAQFBQUGBwwIBwcHBw8LCwkMEQ8SEhEPERETFhwXExQaFRERGCEYGh0dHx8fExciJCIeJBweHx7/2wBDAQUFBQcGBw4ICA4eFBEUHh4eHh4eHh4eHh4eHh4eHh4eHh4eHh4eHh4eHh4eHh4eHh4eHh4eHh4eHh4eHh4eHh7/wAARCABIAGwDASIAAhEBAxEB/8QAHwAAAQUBAQEBAQEAAAAAAAAAAAECAwQFBgcICQoL/8QAtRAAAgEDAwIEAwUFBAQAAAF9AQIDAAQRBRIhMUEGE1FhByJxFDKBkaEII0KxwRVS0fAkM2JyggkKFhcYGRolJicoKSo0NTY3ODk6Q0RFRkdISUpTVFVWV1hZWmNkZWZnaGlqc3R1dnd4eXqDhIWGh4iJipKTlJWWl5iZmqKjpKWmp6ipqrKztLW2t7i5usLDxMXGx8jJytLT1NXW19jZ2uHi4+Tl5ufo6erx8vP09fb3+Pn6/8QAHwEAAwEBAQEBAQEBAQAAAAAAAAECAwQFBgcICQoL/8QAtREAAgECBAQDBAcFBAQAAQJ3AAECAxEEBSExBhJBUQdhcRMiMoEIFEKRobHBCSMzUvAVYnLRChYkNOEl8RcYGRomJygpKjU2Nzg5OkNERUZHSElKU1RVVldYWVpjZGVmZ2hpanN0dXZ3eHl6goOEhYaHiImKkpOUlZaXmJmaoqOkpaanqKmqsrO0tba3uLm6wsPExcbHyMnK0tPU1dbX2Nna4uPk5ebn6Onq8vP09fb3+Pn6/9oADAMBAAIRAxEAPwD7LooooAKKKKACiiigAoooIBBB5B60Ac9ovjjwjrWqSaXpfiLTrq9QkGBJhuOOuAfvfhmuhry+w8KaK93N8PNesYrq3tIftuhXSny544N+CiyDDK8bEDcDyrLnvU2n+HfE9rpsWseEvEGsxTAsJNH8RTG5jkKsVK+YcuhOOGBIIIOK3lTh0f3nPGrPqvuPSqK5zwV4st/ES3FpcWkumazZELfadOR5kJPRgejoezDg10dYyi4uzNoyUldBRRRSKCiiigAooooAKKKKACiiigDjfigJNOt9N8V2WDf6XdJGkR/5eY52WJ4eO5JUg9iorsh0rkfiq32fRNN1GQkW1hrFnc3J/uxCUAsfYZBP0rO8C+PpNf8AG+v6HdWyQW1vdSRaVODxciEhJxnuVYg/Rh6VtyOVO66GHOo1Gn1JvirpN1DbReNdBjxrmiKZcL/y92w5lgb1BGSPQgYrrdD1K11jR7PVbGQSW13Cs0Tf7LDIq4QGBBAIPUGvMvDWop8OdQ1Hw3rkdxb6B9pNxpGoeSzW8UUhy0DuBhCrE43YGDTjepDl6r8hSapT5uj/AD/r9D02imW80NxAk9vKksUihkdGDKwPQgjqKfWB0BRRXzpoPxu8Qy/F4aHqRshoEuqy2SMsO1lXcVQ7s9jtz9a2pUJ1U+XoYVsTCi4qXU+i6Kpa/qVvo2h32rXTbYLO3edz7KpOP0rxX4BfFjxP408cXOj68tokBsnuIFih2MCGTHOeRtY0QoTnCU1sgqYiFOcab3Z7vRRRWJuFFcBqnijxBq3iy48O+Fo7aI2mfPubgZwQcHA9MnHfNb3hoeLorx4dfbTp7bZlJ4Mq+7I4K9MYzXm0czp16jhTjJpO3Nb3brfX9bWOypgp04c05JO17X1sbt1BDdW0ltcxJNDKpSSN1yrKRggjuKxIPB/h+z0q00/S9Pi06OynNxaG3XaYZTnLD1zkgg8EEg1ja/4q1e78SN4b8KW8El1EM3NzN9yL1H4fz4xWdqfiDxt4TmgufECWWo6dI4R5IF2sh/Tn6jmsqme0KTlpJwi7OSXup/8AA62TLjldSpa7XM1om9Wj0ePf5a+Zt34529M1k+NNSvtI8L3+padpD6vcQRFls0bBlHcDg54ycd8YrI+IXia50nwlbazo8kTefKm1nXcCjKT0/AV02lzPcaZa3EmN8sKO2BxkqCa7aONpVMQ6MdXFJ+Vnsc1TDVI0VUeid153R538Hl1C8lbWtPvtBh0O5VjLpmnSSSrDOecjeF8puoZQAD6A816bWL/wjOlw66dc0+FbDUJDi4kgG0XK+ki9G9m6j1rarvqzU5XRx0YOEeVjZpFiheVvuopY/QV8Y2Gitq3wO8QeKbdW+2aZ4i+0CQD5ghVAx/Ngfwr7B8SSGLw7qUo6paSt+SGvEf2VtIh1n4J67pd5H+61G8uIZAw7NEi5rpwtR0oSn5o5cZSVapGD7P8AQX4p+NW8UfBjwtp+muW1DxdNDalFPIKkCX/x/A/Gs3QLO28NftbW2j2o8u3OmpDGAMAgWgH6lK5f9mrw1qt38VxZat5rWvhL7QyRuCFSZn2ce5OW/Cus8cBrf9sTw5MqtiW3hBIHHKyr/SunSDlSjtZv7/8AgHLrUUa0t7xX3f8ABLfw/uJPBn7S+veFLiaX7FrUbXFoHclQTmRQM+3mL+GKspLJ4i/a4eOKWVrXQbEGRQx2h9mOR06yfpUP7U9rJoXiDwf8RbVSJNOvVguCo5KZ3qP0cfjWp+y/pdzeweIfiFqURW68RX7vBuHIhViePYsSPoorOUv3ftu6t89vyNIw/eew6KV/lv8AmbviXw74h8P+JrnxV4XX7Us5LXFrjLHPLDH8QJ545FbHgb4haX4kuv7NliksNUUHNvKOGI67T/Q80upfEfQdK1S50/VodQsZIXKq0ls22UD+JSOoNcRpAbxp8YIPEWjWE1vploVaa4ePZ5hUH9TkDHoOa+E5qeDxC+p1L88vehvvu11X5H2ShPEUX9ZhblWkvyT7/ma3wNuI77VvEd22TOZl3EjnlnJ/Wun+Lwi/4V9qcko4jCMOOh3qP61wFjcTfDL4hak+o2lw+i6iS0c8aZCgtuH4jJBHXvT/AImePdO8UabB4b0CRj9smQS3E48qNQDwMt74JPtXPRr0MPldTCVHafvK3Vtt2/Pc2qUalXHQrwXu+679Elb/ACG+JbxW+BOiTybsG4CjjnAMgH6CvXPD53aDp7DobWI/+OivNPjDpkelfCbStLtm81LeeJAy87jsbLficmtTQPif4Xj0/T9PY3/nLFFCf9GON2AOv1rowUqWCxbjWkk+SC1fYxxMZ4nDqVON1zSf3notFFFfUHhgQCCCMg9RTYo44l2xRoi+ijAoooAEijRmZI0VmOWIXBP1pskMbP5vkxtKB8rFRkfjRRQB4l4m8HfE/wCJ19aaV41h0nQPDlpcCaVLGcyyXJGQMHtwT1xjPevaNLsbTTNNttOsIEgtbaNYoY1HCqowBRRWs6rmktkjKnRUG5btks8EFwoWeGOVR0DqGH606NEjQJGioo6KowBRRWNle5tdhLHHKhjljWRD1VhkGsvWPDeh6tYNY32mW0kJ6AIFKn1BHINFFTOnCaakrocZyi7xdiXQdGsdG0a30m0Rmt4BhfNO4nnOSfxq6LeD/njH/wB8iiiiNOMYqMVoglOUm23qySiiirJP/9k=&quot; class=&quot;CIDadb790f8-6170-40c4-973f-e10263c3728e&quot; style=&quot;font-style: normal; font-weight: 400; letter-spacing: normal; text-indent: 0px; text-transform: none; word-spacing: 0px; text-decoration: none; color: rgb(0, 0, 0); font-family: times; font-size: medium;&quot;&gt;" style="text;whiteSpace=wrap;html=1;" parent="1" vertex="1">
          <mxGeometry x="630" y="236.9" width="30" height="30" as="geometry" />
        </mxCell>
        <mxCell id="HXA4JG6n8LRg7Sm5DyyX-1" value="&lt;br class=&quot;Apple-interchange-newline&quot;&gt;&lt;img src=&quot;https://axisbits.com/storage/app/uploads/public/7da/cc4/ec1/7dacc4ec1c9bc16b7aa58185cb8efa5a.png&quot; style=&quot;color: rgb(0, 0, 0); font-style: normal; font-weight: normal; letter-spacing: normal; text-indent: 0px; text-transform: none; word-spacing: 0px; text-decoration: none; display: block; margin: auto;&quot;&gt;" style="text;whiteSpace=wrap;html=1;" vertex="1" parent="1">
          <mxGeometry x="130" y="490" width="30" height="30" as="geometry" />
        </mxCell>
      </root>
    </mxGraphModel>
  </diagram>
</mxfile>
